<svg width="100" height="35" viewBox="0 0 100 35" fill="none" xmlns="http://www.w3.org/2000/svg">
<rect width="100" height="35" rx="10" fill="#FFDDAF"/>
<path d="M29.776 12.8H31.376V24H29.776V12.8ZM23.344 24H21.744V12.8H23.344V24ZM29.92 19.008H23.184V17.616H29.92V19.008ZM39.829 24V22.208L39.749 21.872V18.816C39.749 18.1653 39.557 17.664 39.173 17.312C38.7997 16.9493 38.2343 16.768 37.477 16.768C36.9757 16.768 36.485 16.8533 36.005 17.024C35.525 17.184 35.1197 17.4027 34.789 17.68L34.149 16.528C34.5863 16.176 35.109 15.9093 35.717 15.728C36.3357 15.536 36.981 15.44 37.653 15.44C38.8157 15.44 39.7117 15.7227 40.341 16.288C40.9703 16.8533 41.285 17.7173 41.285 18.88V24H39.829ZM37.045 24.096C36.4157 24.096 35.861 23.9893 35.381 23.776C34.9117 23.5627 34.549 23.2693 34.293 22.896C34.037 22.512 33.909 22.08 33.909 21.6C33.909 21.1413 34.0157 20.7253 34.229 20.352C34.453 19.9787 34.8103 19.68 35.301 19.456C35.8023 19.232 36.4743 19.12 37.317 19.12H40.005V20.224H37.381C36.613 20.224 36.0957 20.352 35.829 20.608C35.5623 20.864 35.429 21.1733 35.429 21.536C35.429 21.952 35.5943 22.288 35.925 22.544C36.2557 22.7893 36.7143 22.912 37.301 22.912C37.877 22.912 38.3783 22.784 38.805 22.528C39.2423 22.272 39.557 21.8987 39.749 21.408L40.053 22.464C39.8503 22.9653 39.493 23.3653 38.981 23.664C38.469 23.952 37.8237 24.096 37.045 24.096ZM44.0669 24V15.52H45.6029V21.696L50.8029 15.52H52.1949V24H50.6589V17.824L45.4749 24H44.0669ZM48.0349 14.416C47.2562 14.416 46.6429 14.2293 46.1949 13.856C45.7575 13.472 45.5335 12.9227 45.5229 12.208H46.5629C46.5735 12.6133 46.7069 12.9333 46.9629 13.168C47.2295 13.4027 47.5815 13.52 48.0189 13.52C48.4562 13.52 48.8082 13.4027 49.0749 13.168C49.3415 12.9333 49.4802 12.6133 49.4909 12.208H50.5629C50.5522 12.9227 50.3229 13.472 49.8749 13.856C49.4269 14.2293 48.8135 14.416 48.0349 14.416ZM56.8723 24V16.464L57.2563 16.864H53.7683V15.52H61.5123V16.864H58.0403L58.4083 16.464V24H56.8723ZM63.0989 24V15.52H64.6349V21.696L69.8349 15.52H71.2269V24H69.6909V17.824L64.5069 24H63.0989Z" fill="black"/>
</svg>
