<svg width="160" height="35" viewBox="0 0 160 35" fill="none" xmlns="http://www.w3.org/2000/svg">
<rect width="160" height="35" rx="10" fill="#FFDDAF"/>
<path d="M22.744 23V11.8H24.328V20.44L30.952 11.8H32.424V23H30.856V14.376L24.216 23H22.744ZM35.6759 23V14.52H37.2119V18.12H42.0439V14.52H43.5799V23H42.0439V19.448H37.2119V23H35.6759ZM46.5825 23V14.52H52.8225V15.864H47.7505L48.1185 15.512V23H46.5825ZM58.907 23.096C58.203 23.096 57.5577 22.936 56.971 22.616C56.395 22.2853 55.931 21.8 55.579 21.16C55.2377 20.52 55.067 19.72 55.067 18.76C55.067 17.8 55.2323 17 55.563 16.36C55.9043 15.72 56.363 15.24 56.939 14.92C57.5257 14.6 58.1817 14.44 58.907 14.44C59.739 14.44 60.475 14.6213 61.115 14.984C61.755 15.3467 62.2617 15.8533 62.635 16.504C63.0083 17.144 63.195 17.896 63.195 18.76C63.195 19.624 63.0083 20.3813 62.635 21.032C62.2617 21.6827 61.755 22.1893 61.115 22.552C60.475 22.9147 59.739 23.096 58.907 23.096ZM54.411 26.104V14.52H55.883V16.808L55.787 18.776L55.947 20.744V26.104H54.411ZM58.779 21.752C59.323 21.752 59.8083 21.6293 60.235 21.384C60.6723 21.1387 61.0137 20.792 61.259 20.344C61.515 19.8853 61.643 19.3573 61.643 18.76C61.643 18.152 61.515 17.6293 61.259 17.192C61.0137 16.744 60.6723 16.3973 60.235 16.152C59.8083 15.9067 59.323 15.784 58.779 15.784C58.2457 15.784 57.7603 15.9067 57.323 16.152C56.8963 16.3973 56.555 16.744 56.299 17.192C56.0537 17.6293 55.931 18.152 55.931 18.76C55.931 19.3573 56.0537 19.8853 56.299 20.344C56.555 20.792 56.8963 21.1387 57.323 21.384C57.7603 21.6293 58.2457 21.752 58.779 21.752ZM69.2186 23.096C68.312 23.096 67.512 22.9093 66.8186 22.536C66.136 22.1627 65.6026 21.6507 65.2186 21C64.8453 20.3493 64.6586 19.6027 64.6586 18.76C64.6586 17.9173 64.84 17.1707 65.2026 16.52C65.576 15.8693 66.0826 15.3627 66.7226 15C67.3733 14.6267 68.104 14.44 68.9146 14.44C69.736 14.44 70.4613 14.6213 71.0906 14.984C71.72 15.3467 72.2106 15.8587 72.5626 16.52C72.9253 17.1707 73.1066 17.9333 73.1066 18.808C73.1066 18.872 73.1013 18.9467 73.0906 19.032C73.0906 19.1173 73.0853 19.1973 73.0746 19.272H65.8586V18.168H72.2746L71.6506 18.552C71.6613 18.008 71.5493 17.5227 71.3146 17.096C71.08 16.6693 70.7546 16.3387 70.3386 16.104C69.9333 15.8587 69.4586 15.736 68.9146 15.736C68.3813 15.736 67.9066 15.8587 67.4906 16.104C67.0746 16.3387 66.7493 16.6747 66.5146 17.112C66.28 17.5387 66.1626 18.0293 66.1626 18.584V18.84C66.1626 19.4053 66.2906 19.912 66.5466 20.36C66.8133 20.7973 67.1813 21.1387 67.6506 21.384C68.12 21.6293 68.6586 21.752 69.2666 21.752C69.768 21.752 70.2213 21.6667 70.6266 21.496C71.0426 21.3253 71.4053 21.0693 71.7146 20.728L72.5626 21.72C72.1786 22.168 71.6986 22.5093 71.1226 22.744C70.5573 22.9787 69.9226 23.096 69.2186 23.096ZM81.1569 22.28V15.864H77.4769L77.3969 17.496C77.3755 18.0293 77.3382 18.5467 77.2849 19.048C77.2422 19.5387 77.1675 19.992 77.0609 20.408C76.9649 20.824 76.8209 21.1653 76.6289 21.432C76.4369 21.6987 76.1809 21.864 75.8609 21.928L74.3409 21.656C74.6715 21.6667 74.9382 21.56 75.1409 21.336C75.3435 21.1013 75.4982 20.7813 75.6049 20.376C75.7222 19.9707 75.8075 19.512 75.8609 19C75.9142 18.4773 75.9569 17.9387 75.9889 17.384L76.1169 14.52H82.6929V22.28H81.1569ZM74.0049 24.968V21.656H83.9889V24.968H82.5489V23H75.4609V24.968H74.0049ZM86.0059 23V14.52H87.5419V20.696L92.7419 14.52H94.1339V23H92.5979V16.824L87.4139 23H86.0059ZM100.907 23.096C100.001 23.096 99.2006 22.9093 98.5072 22.536C97.8246 22.1627 97.2912 21.6507 96.9072 21C96.5339 20.3493 96.3472 19.6027 96.3472 18.76C96.3472 17.9173 96.5286 17.1707 96.8912 16.52C97.2646 15.8693 97.7712 15.3627 98.4112 15C99.0619 14.6267 99.7926 14.44 100.603 14.44C101.425 14.44 102.15 14.6213 102.779 14.984C103.409 15.3467 103.899 15.8587 104.251 16.52C104.614 17.1707 104.795 17.9333 104.795 18.808C104.795 18.872 104.79 18.9467 104.779 19.032C104.779 19.1173 104.774 19.1973 104.763 19.272H97.5472V18.168H103.963L103.339 18.552C103.35 18.008 103.238 17.5227 103.003 17.096C102.769 16.6693 102.443 16.3387 102.027 16.104C101.622 15.8587 101.147 15.736 100.603 15.736C100.07 15.736 99.5952 15.8587 99.1792 16.104C98.7632 16.3387 98.4379 16.6747 98.2032 17.112C97.9686 17.5387 97.8512 18.0293 97.8512 18.584V18.84C97.8512 19.4053 97.9792 19.912 98.2352 20.36C98.5019 20.7973 98.8699 21.1387 99.3392 21.384C99.8086 21.6293 100.347 21.752 100.955 21.752C101.457 21.752 101.91 21.6667 102.315 21.496C102.731 21.3253 103.094 21.0693 103.403 20.728L104.251 21.72C103.867 22.168 103.387 22.5093 102.811 22.744C102.246 22.9787 101.611 23.096 100.907 23.096ZM107.194 23V14.52H108.73V18.12H113.562V14.52H115.098V23H113.562V19.448H108.73V23H107.194ZM119.781 23V15.464L120.165 15.864H116.677V14.52H124.421V15.864H120.949L121.317 15.464V23H119.781ZM134.391 23V14.52H135.927V23H134.391ZM129.831 17.4C130.909 17.4107 131.725 17.656 132.279 18.136C132.845 18.616 133.127 19.2933 133.127 20.168C133.127 21.0853 132.818 21.7947 132.199 22.296C131.591 22.7867 130.717 23.0267 129.575 23.016L126.007 23V14.52H127.543V17.384L129.831 17.4ZM129.463 21.848C130.146 21.8587 130.669 21.72 131.031 21.432C131.394 21.144 131.575 20.7173 131.575 20.152C131.575 19.5973 131.394 19.192 131.031 18.936C130.679 18.68 130.157 18.5467 129.463 18.536L127.543 18.504V21.832L129.463 21.848Z" fill="black"/>
</svg>
