<svg width="31" height="29" viewBox="0 0 31 29" fill="none" xmlns="http://www.w3.org/2000/svg">
<path fill-rule="evenodd" clip-rule="evenodd" d="M15.4982 3.44488C17.0329 1.89924 19.0132 1.34874 20.9124 1.37622C25.4772 1.44227 30.0843 5.16734 30.0843 10.5636C30.0843 15.7542 26.7644 20.0756 23.4807 23.0134C21.8193 24.4999 20.1153 25.68 18.7314 26.4927C18.0399 26.8988 17.4166 27.2201 16.908 27.4439C16.6546 27.5554 16.4168 27.6483 16.205 27.7155C16.0208 27.774 15.7611 27.8448 15.5006 27.8448C15.2401 27.8448 14.9804 27.774 14.7961 27.7155C14.5843 27.6483 14.3465 27.5554 14.0931 27.4439C13.5846 27.2201 12.9613 26.8988 12.2698 26.4927C10.8859 25.68 9.18185 24.4999 7.5204 23.0134C4.23677 20.0756 0.916809 15.7542 0.916809 10.5636C0.916809 5.18009 5.51328 1.37611 10.1046 1.37611C11.9523 1.37611 13.9516 1.90225 15.4982 3.44488ZM20.8807 3.56349C19.134 3.53822 17.5062 4.13123 16.4106 5.7745C16.2078 6.07877 15.8663 6.26153 15.5006 6.26153C15.1349 6.26153 14.7934 6.07877 14.5905 5.7745C13.5016 4.14117 11.8442 3.56361 10.1046 3.56361C6.60184 3.56361 3.10431 6.5044 3.10431 10.5636C3.10431 14.8157 5.85486 18.588 8.97898 21.3832C10.5214 22.7632 12.1056 23.8595 13.3775 24.6065C14.0139 24.9802 14.5605 25.2596 14.9741 25.4416C15.1818 25.533 15.3432 25.5941 15.4574 25.6304C15.4737 25.6356 15.4881 25.6399 15.5006 25.6435C15.5131 25.6399 15.5274 25.6356 15.5437 25.6304C15.658 25.5941 15.8194 25.533 16.0271 25.4416C16.4407 25.2596 16.9872 24.9802 17.6236 24.6065C18.8956 23.8595 20.4797 22.7632 22.0222 21.3832C25.1463 18.588 27.8968 14.8157 27.8968 10.5636C27.8968 6.51716 24.41 3.61455 20.8807 3.56349Z" fill="#040509" stroke="black" stroke-linecap="round" stroke-linejoin="round"/>
</svg>
