<svg width="119" height="27" viewBox="0 0 119 27" fill="none" xmlns="http://www.w3.org/2000/svg">
<rect width="119" height="26.0312" rx="10" fill="#FFDDAF"/>
<path d="M19.752 18.128C18.8987 18.128 18.1093 17.9893 17.384 17.712C16.6693 17.424 16.0453 17.024 15.512 16.512C14.9893 15.9893 14.5787 15.3813 14.28 14.688C13.9813 13.9947 13.832 13.232 13.832 12.4C13.832 11.568 13.9813 10.8053 14.28 10.112C14.5787 9.41867 14.9947 8.816 15.528 8.304C16.0613 7.78133 16.6853 7.38133 17.4 7.104C18.1253 6.816 18.9147 6.672 19.768 6.672C20.632 6.672 21.4267 6.82133 22.152 7.12C22.888 7.408 23.512 7.84 24.024 8.416L22.984 9.424C22.5573 8.976 22.0773 8.64533 21.544 8.432C21.0107 8.208 20.44 8.096 19.832 8.096C19.2027 8.096 18.616 8.20267 18.072 8.416C17.5387 8.62933 17.0747 8.928 16.68 9.312C16.2853 9.696 15.976 10.1547 15.752 10.688C15.5387 11.2107 15.432 11.7813 15.432 12.4C15.432 13.0187 15.5387 13.5947 15.752 14.128C15.976 14.6507 16.2853 15.104 16.68 15.488C17.0747 15.872 17.5387 16.1707 18.072 16.384C18.616 16.5973 19.2027 16.704 19.832 16.704C20.44 16.704 21.0107 16.5973 21.544 16.384C22.0773 16.16 22.5573 15.8187 22.984 15.36L24.024 16.368C23.512 16.944 22.888 17.3813 22.152 17.68C21.4267 17.9787 20.6267 18.128 19.752 18.128ZM29.261 18.096C28.4077 18.096 27.6503 17.9093 26.989 17.536C26.3277 17.1627 25.805 16.6507 25.421 16C25.037 15.3387 24.845 14.592 24.845 13.76C24.845 12.9173 25.037 12.1707 25.421 11.52C25.805 10.8693 26.3277 10.3627 26.989 10C27.6503 9.62667 28.4077 9.44 29.261 9.44C30.1037 9.44 30.8557 9.62667 31.517 10C32.189 10.3627 32.7117 10.8693 33.085 11.52C33.469 12.16 33.661 12.9067 33.661 13.76C33.661 14.6027 33.469 15.3493 33.085 16C32.7117 16.6507 32.189 17.1627 31.517 17.536C30.8557 17.9093 30.1037 18.096 29.261 18.096ZM29.261 16.752C29.805 16.752 30.2903 16.6293 30.717 16.384C31.1543 16.1387 31.4957 15.792 31.741 15.344C31.9863 14.8853 32.109 14.3573 32.109 13.76C32.109 13.152 31.9863 12.6293 31.741 12.192C31.4957 11.744 31.1543 11.3973 30.717 11.152C30.2903 10.9067 29.805 10.784 29.261 10.784C28.717 10.784 28.2317 10.9067 27.805 11.152C27.3783 11.3973 27.037 11.744 26.781 12.192C26.525 12.6293 26.397 13.152 26.397 13.76C26.397 14.3573 26.525 14.8853 26.781 15.344C27.037 15.792 27.3783 16.1387 27.805 16.384C28.2317 16.6293 28.717 16.752 29.261 16.752ZM34.2697 18L37.9177 13.264L37.9017 14.048L34.4297 9.52H36.1417L38.7977 13.008H38.1417L40.7977 9.52H42.4777L38.9577 14.08L38.9737 13.264L42.6538 18H40.9097L38.1097 14.288L38.7337 14.384L35.9817 18H34.2697ZM48.782 18.096C48.078 18.096 47.4327 17.936 46.846 17.616C46.27 17.2853 45.806 16.8 45.454 16.16C45.1127 15.52 44.942 14.72 44.942 13.76C44.942 12.8 45.1073 12 45.438 11.36C45.7793 10.72 46.238 10.24 46.814 9.92C47.4007 9.6 48.0567 9.44 48.782 9.44C49.614 9.44 50.35 9.62133 50.99 9.984C51.63 10.3467 52.1367 10.8533 52.51 11.504C52.8833 12.144 53.07 12.896 53.07 13.76C53.07 14.624 52.8833 15.3813 52.51 16.032C52.1367 16.6827 51.63 17.1893 50.99 17.552C50.35 17.9147 49.614 18.096 48.782 18.096ZM44.286 21.104V9.52H45.758V11.808L45.662 13.776L45.822 15.744V21.104H44.286ZM48.654 16.752C49.198 16.752 49.6833 16.6293 50.11 16.384C50.5473 16.1387 50.8887 15.792 51.134 15.344C51.39 14.8853 51.518 14.3573 51.518 13.76C51.518 13.152 51.39 12.6293 51.134 12.192C50.8887 11.744 50.5473 11.3973 50.11 11.152C49.6833 10.9067 49.198 10.784 48.654 10.784C48.1207 10.784 47.6353 10.9067 47.198 11.152C46.7713 11.3973 46.43 11.744 46.174 12.192C45.9287 12.6293 45.806 13.152 45.806 13.76C45.806 14.3573 45.9287 14.8853 46.174 15.344C46.43 15.792 46.7713 16.1387 47.198 16.384C47.6353 16.6293 48.1207 16.752 48.654 16.752ZM60.4395 18V16.208L60.3595 15.872V12.816C60.3595 12.1653 60.1675 11.664 59.7835 11.312C59.4102 10.9493 58.8448 10.768 58.0875 10.768C57.5862 10.768 57.0955 10.8533 56.6155 11.024C56.1355 11.184 55.7302 11.4027 55.3995 11.68L54.7595 10.528C55.1968 10.176 55.7195 9.90933 56.3275 9.728C56.9462 9.536 57.5915 9.44 58.2635 9.44C59.4262 9.44 60.3222 9.72267 60.9515 10.288C61.5808 10.8533 61.8955 11.7173 61.8955 12.88V18H60.4395ZM57.6555 18.096C57.0262 18.096 56.4715 17.9893 55.9915 17.776C55.5222 17.5627 55.1595 17.2693 54.9035 16.896C54.6475 16.512 54.5195 16.08 54.5195 15.6C54.5195 15.1413 54.6262 14.7253 54.8395 14.352C55.0635 13.9787 55.4208 13.68 55.9115 13.456C56.4128 13.232 57.0848 13.12 57.9275 13.12H60.6155V14.224H57.9915C57.2235 14.224 56.7062 14.352 56.4395 14.608C56.1728 14.864 56.0395 15.1733 56.0395 15.536C56.0395 15.952 56.2048 16.288 56.5355 16.544C56.8662 16.7893 57.3248 16.912 57.9115 16.912C58.4875 16.912 58.9888 16.784 59.4155 16.528C59.8528 16.272 60.1675 15.8987 60.3595 15.408L60.6635 16.464C60.4608 16.9653 60.1035 17.3653 59.5915 17.664C59.0795 17.952 58.4342 18.096 57.6555 18.096ZM64.6774 18V9.52H66.2134V13.12H71.0454V9.52H72.5814V18H71.0454V14.448H66.2134V18H64.6774ZM75.584 18V9.52H77.12V15.696L82.32 9.52H83.712V18H82.176V11.824L76.992 18H75.584ZM88.3894 18V10.464L88.7734 10.864H85.2854V9.52H93.0294V10.864H89.5574L89.9254 10.464V18H88.3894ZM98.536 12.4C99.6133 12.4107 100.435 12.656 101 13.136C101.565 13.616 101.848 14.2933 101.848 15.168C101.848 16.0853 101.539 16.7947 100.92 17.296C100.301 17.7867 99.4267 18.0267 98.296 18.016L94.616 18V9.52H96.152V12.384L98.536 12.4ZM98.168 16.848C98.8613 16.8587 99.384 16.72 99.736 16.432C100.099 16.144 100.28 15.7173 100.28 15.152C100.28 14.5973 100.104 14.192 99.752 13.936C99.4 13.68 98.872 13.5467 98.168 13.536L96.152 13.504V16.832L98.168 16.848Z" fill="black"/>
</svg>
