<svg width="28" height="28" viewBox="0 0 28 28" fill="none" xmlns="http://www.w3.org/2000/svg">
<path d="M7.5 18.5H19.5V20.5H7.5V18.5Z" fill="black" stroke="black"/>
<path d="M0.5 10.7959L0.5 10.7955C0.499893 10.6473 0.534998 10.5002 0.603602 10.3653C0.672256 10.2302 0.773061 10.1102 0.899796 10.0155L13.3442 0.71544L13.3442 0.715412C13.5295 0.576929 13.7602 0.5 14 0.5C14.2398 0.5 14.4705 0.576929 14.6558 0.715412L14.6558 0.71544L27.1002 10.0155C27.2269 10.1102 27.3277 10.2302 27.3964 10.3653C27.465 10.5002 27.5001 10.6473 27.5 10.7955V10.7959V26.5053C27.5 26.7625 27.3938 27.0134 27.198 27.2017C27.0014 27.3905 26.7307 27.5 26.4444 27.5H1.55556C1.26931 27.5 0.998607 27.3905 0.802045 27.2017C0.606159 27.0135 0.5 26.7625 0.5 26.5053L0.5 10.7959ZM2.50464 11.5817L2.3 11.7316V11.9852V25.3095V25.8095H2.8H25.2H25.7V25.3095V11.9852V11.7316L25.4954 11.5817L14.2954 3.38218L14 3.16595L13.7046 3.38218L2.50464 11.5817Z" fill="black" stroke="black"/>
</svg>
