<svg width="35" height="35" viewBox="0 0 35 35" fill="none" xmlns="http://www.w3.org/2000/svg">
<path fill-rule="evenodd" clip-rule="evenodd" d="M17.4999 1C18.3273 1 19.1428 1.06129 19.9371 1.17914L21.1345 4.80673C22.1834 5.10608 23.1805 5.53271 24.1045 6.07013L27.5458 4.41073C28.7644 5.3465 29.8487 6.44963 30.7632 7.68475L29.0425 11.0955C29.5635 12.0289 29.9736 13.033 30.2541 14.089L33.8604 15.3453C34.0591 16.8704 34.0456 18.4156 33.8203 19.937L30.1928 21.1344C29.8955 22.1726 29.4711 23.1701 28.9294 24.1043L30.5888 27.5457C29.6518 28.7647 28.5499 29.8475 27.3148 30.7632L23.9041 29.0425C22.9606 29.5694 21.955 29.9764 20.9106 30.254L19.6543 33.8604C18.1292 34.0591 16.584 34.0456 15.0627 33.8203L13.8653 30.1927C12.8271 29.8954 11.8296 29.4711 10.8954 28.9293L7.45405 30.5887C6.2351 29.6517 5.15227 28.5498 4.23663 27.3147L5.9573 23.904C5.4317 22.9599 5.02477 21.9544 4.74576 20.9105L1.13943 19.6518C0.940949 18.1275 0.954434 16.5831 1.1795 15.0625L4.80705 13.8651C5.1064 12.8162 5.53303 11.8191 6.07044 10.8951L4.41106 7.45375C5.34808 6.2348 6.44995 5.15196 7.68504 4.23631L11.0957 5.95699C12.0392 5.43011 13.0449 5.02311 14.0892 4.74544L15.3479 1.13907C16.0615 1.04623 16.7803 0.999779 17.4999 1V1Z" stroke="black" stroke-width="2" stroke-linecap="round" stroke-linejoin="round"/>
<path d="M17.4999 24.571C21.4053 24.571 24.5712 21.405 24.5712 17.4997C24.5712 13.5943 21.4053 10.4283 17.4999 10.4283C13.5946 10.4283 10.4287 13.5943 10.4287 17.4997C10.4287 21.405 13.5946 24.571 17.4999 24.571Z" stroke="black" stroke-width="2" stroke-linecap="round" stroke-linejoin="round"/>
</svg>
