<svg width="160" height="35" viewBox="0 0 160 35" fill="none" xmlns="http://www.w3.org/2000/svg">
<rect width="160" height="35" rx="10" fill="#FFDDAF"/>
<path d="M50.744 24V12.8H55.112C56.0933 12.8 56.9307 12.9547 57.624 13.264C58.3173 13.5733 58.8507 14.0213 59.224 14.608C59.5973 15.1947 59.784 15.8933 59.784 16.704C59.784 17.5147 59.5973 18.2133 59.224 18.8C58.8507 19.376 58.3173 19.824 57.624 20.144C56.9307 20.4533 56.0933 20.608 55.112 20.608H51.624L52.344 19.856V24H50.744ZM52.344 20.016L51.624 19.216H55.064C56.088 19.216 56.8613 18.9973 57.384 18.56C57.9173 18.1227 58.184 17.504 58.184 16.704C58.184 15.904 57.9173 15.2853 57.384 14.848C56.8613 14.4107 56.088 14.192 55.064 14.192H51.624L52.344 13.392V20.016ZM65.5144 24.096C64.6077 24.096 63.8077 23.9093 63.1144 23.536C62.4317 23.1627 61.8984 22.6507 61.5144 22C61.141 21.3493 60.9544 20.6027 60.9544 19.76C60.9544 18.9173 61.1357 18.1707 61.4984 17.52C61.8717 16.8693 62.3784 16.3627 63.0184 16C63.669 15.6267 64.3997 15.44 65.2104 15.44C66.0317 15.44 66.757 15.6213 67.3864 15.984C68.0157 16.3467 68.5064 16.8587 68.8584 17.52C69.221 18.1707 69.4024 18.9333 69.4024 19.808C69.4024 19.872 69.397 19.9467 69.3864 20.032C69.3864 20.1173 69.381 20.1973 69.3704 20.272H62.1544V19.168H68.5704L67.9464 19.552C67.957 19.008 67.845 18.5227 67.6104 18.096C67.3757 17.6693 67.0504 17.3387 66.6344 17.104C66.229 16.8587 65.7544 16.736 65.2104 16.736C64.677 16.736 64.2024 16.8587 63.7864 17.104C63.3704 17.3387 63.045 17.6747 62.8104 18.112C62.5757 18.5387 62.4584 19.0293 62.4584 19.584V19.84C62.4584 20.4053 62.5864 20.912 62.8424 21.36C63.109 21.7973 63.477 22.1387 63.9464 22.384C64.4157 22.6293 64.9544 22.752 65.5624 22.752C66.0637 22.752 66.517 22.6667 66.9224 22.496C67.3384 22.3253 67.701 22.0693 68.0104 21.728L68.8584 22.72C68.4744 23.168 67.9944 23.5093 67.4184 23.744C66.853 23.9787 66.2184 24.096 65.5144 24.096ZM71.8012 24V15.52H73.3372V22.656H77.9773V15.52H79.5133V24H71.8012ZM79.4012 25.968V23.92L79.7852 24H77.9773V22.656H80.8573V25.968H79.4012ZM86.6401 24.096C85.7335 24.096 84.9335 23.9093 84.2401 23.536C83.5575 23.1627 83.0241 22.6507 82.6401 22C82.2668 21.3493 82.0801 20.6027 82.0801 19.76C82.0801 18.9173 82.2615 18.1707 82.6241 17.52C82.9975 16.8693 83.5041 16.3627 84.1441 16C84.7948 15.6267 85.5255 15.44 86.3361 15.44C87.1575 15.44 87.8828 15.6213 88.5121 15.984C89.1415 16.3467 89.6321 16.8587 89.9841 17.52C90.3468 18.1707 90.5281 18.9333 90.5281 19.808C90.5281 19.872 90.5228 19.9467 90.5121 20.032C90.5121 20.1173 90.5068 20.1973 90.4961 20.272H83.2801V19.168H89.6961L89.0721 19.552C89.0828 19.008 88.9708 18.5227 88.7361 18.096C88.5015 17.6693 88.1761 17.3387 87.7601 17.104C87.3548 16.8587 86.8801 16.736 86.3361 16.736C85.8028 16.736 85.3281 16.8587 84.9121 17.104C84.4961 17.3387 84.1708 17.6747 83.9361 18.112C83.7015 18.5387 83.5841 19.0293 83.5841 19.584V19.84C83.5841 20.4053 83.7121 20.912 83.9681 21.36C84.2348 21.7973 84.6028 22.1387 85.0721 22.384C85.5415 22.6293 86.0801 22.752 86.6881 22.752C87.1895 22.752 87.6428 22.6667 88.0481 22.496C88.4641 22.3253 88.8268 22.0693 89.1361 21.728L89.9841 22.72C89.6001 23.168 89.1201 23.5093 88.5441 23.744C87.9788 23.9787 87.3441 24.096 86.6401 24.096ZM92.927 24V15.52H100.783V24H99.247V16.48L99.615 16.864H94.095L94.463 16.48V24H92.927ZM105.451 24V16.464L105.835 16.864H102.347V15.52H110.091V16.864H106.619L106.987 16.464V24H105.451Z" fill="black"/>
</svg>
