<svg width="298" height="60" viewBox="0 0 298 60" fill="none" xmlns="http://www.w3.org/2000/svg">
<rect width="298" height="60" rx="16" fill="#FFDDAF"/>
<path fill-rule="evenodd" clip-rule="evenodd" d="M23.1634 30.5654C23.2852 30.4621 23.4299 30.3801 23.5891 30.3242C23.7483 30.2683 23.919 30.2395 24.0913 30.2395C24.2637 30.2395 24.4344 30.2683 24.5936 30.3242C24.7528 30.3801 24.8975 30.4621 25.0193 30.5654L30.069 34.8433C30.3151 35.0516 30.4534 35.3342 30.4535 35.629C30.4537 35.9237 30.3156 36.2065 30.0696 36.415C29.8237 36.6235 29.4901 36.7406 29.1421 36.7407C28.7942 36.7409 28.4605 36.6239 28.2144 36.4155L23.1647 32.1376C23.0428 32.0344 22.946 31.9119 22.88 31.777C22.814 31.6421 22.78 31.4975 22.78 31.3515C22.78 31.2055 22.814 31.0609 22.88 30.926C22.946 30.7911 23.0428 30.6686 23.1647 30.5654H23.1634Z" fill="black"/>
<path fill-rule="evenodd" clip-rule="evenodd" d="M17.993 32.2966C18.9404 32.2966 19.8784 32.1386 20.7536 31.8315C21.6289 31.5243 22.4241 31.0742 23.094 30.5067C23.7638 29.9392 24.2952 29.2655 24.6577 28.5241C25.0203 27.7826 25.2068 26.9879 25.2068 26.1854C25.2068 25.3829 25.0203 24.5882 24.6577 23.8467C24.2952 23.1053 23.7638 22.4316 23.094 21.8641C22.4241 21.2966 21.6289 20.8465 20.7536 20.5393C19.8784 20.2322 18.9404 20.0741 17.993 20.0741C16.0798 20.0741 14.2449 20.718 12.8921 21.8641C11.5392 23.0102 10.7792 24.5646 10.7792 26.1854C10.7792 27.8062 11.5392 29.3606 12.8921 30.5067C14.2449 31.6528 16.0798 32.2966 17.993 32.2966ZM26.5184 26.1854C26.5184 28.1009 25.6202 29.9379 24.0214 31.2924C22.4226 32.6469 20.2541 33.4078 17.993 33.4078C15.7319 33.4078 13.5635 32.6469 11.9646 31.2924C10.3658 29.9379 9.46761 28.1009 9.46761 26.1854C9.46761 24.2699 10.3658 22.4329 11.9646 21.0784C13.5635 19.7239 15.7319 18.963 17.993 18.963C20.2541 18.963 22.4226 19.7239 24.0214 21.0784C25.6202 22.4329 26.5184 24.2699 26.5184 26.1854Z" fill="black"/>
</svg>
